<?xml version="1.0" encoding="UTF-8"?>
<!DOCTYPE svg PUBLIC "-//W3C//DTD SVG 1.1//EN"
          "http://www.w3.org/Graphics/SVG/1.1/DTD/svg11.dtd">
<svg xmlns="http://www.w3.org/2000/svg" viewBox="0 0 416.98 57.96">
    <defs>
        <style>.cls-1{fill:#e73e19;}.cls-2,.cls-3{fill:#fdf9e6;}.cls-3{opacity:0.8;}</style>
    </defs>
    <g id="Layer_2" data-name="Layer 2">
        <g id="Layer_1-2" data-name="Layer 1">
        <rect class="cls-1" width="416.98" height="57.96" rx="28.98"/>
        <path class="cls-2" d="M88.13,23.67a2.91,2.91,0,0,0,1.27-.23,1.79,1.79,0,0,0,.77-.63,2.32,2.32,0,0,0,.38-.91,5.39,5.39,0,0,0,   .1-1.07v-.36h2.68v.36A5.37,5.37,0,0,1,92,24.74a5.17,5.17,0,0,1-3.87,1.37,5.06,5.06,0,0,1-3.85-1.48,6,6,0,0,1-1.43-4.33V17.14a7.46,7.46,0,0,    1,.37-2.45,4.87,4.87,0,0,1,1.06-1.83,4.64,4.64,0,0,1,1.66-1.14,5.85,5.85,0,0,1,2.19-.39,6.46,6.46,0,0,1,2.24.36A4.39,4.39,0,0,1,92, 12.75a4.55,4.55,0,0,1,1,1.66,6.87,6.87,0,0,1,.33,2.2V17H90.65v-.36a4.44,4.44,0,0,0-.12-1,2.6,2.6,0,0,0-.41-.91,2.08,2.08,0,0,0-.77-.66,2.59, 2.59,0,0,0-1.22-.26A2.51,2.51,0,0,0,87,14a2.45,2.45,0,0,0-.81.69,3,3,0,0,0-.47,1,4.42,4.42,0,0,0-.16,1.21v3.58a5.08,5.08,0,0,0,.15,1.27, 2.85,2.85,0,0,0,.44,1,2,2,0,0,0,.8.66A2.81,2.81,0,0,0,88.13,23.67Z"/>
        <path class="cls-2" d="M105.25,20.91a5.41,5.41,0,0,1-.43,2.23,4.77,4.77,0,0,1-1.15,1.62,5.13,5.13,0,0,1-1.68,1,5.94,5.94,0,0,1-4,0,5,5,0,0, 1-1.67-1,4.66,4.66,0,0,1-1.16-1.62,5.58,5.58,0,0,1-.43-2.23v-.24a5.43,5.43,0,0,1,.43-2.2,4.74,4.74,0,0,1,1.16-1.64,4.83,4.83,0,0,1,1.67-1,   5.78,5.78,0,0,1,4,0,5,5,0,0,1,1.68,1,4.85,4.85,0,0,1,1.15,1.64,5.27,5.27,0,0,1,.43,2.2ZM100,23.67a3,3,0,0,0,1-.18,2.49,2.49,0,0,0,.85-.53, 2.52,2.52,0,0,0,.58-.84,2.88,2.88,0,0,0,.21-1.13v-.4a2.88,2.88,0,0,0-.21-1.13,2.52,2.52,0,0,0-.58-.84,2.49,2.49,0,0,0-.85-.53,3,3,0,0,   0-1-.18,2.94,2.94,0,0,0-1,.18,2.53,2.53,0,0,0-.86.53,2.5,2.5,0,0,0-.57.84,2.71,2.71,0,0,0-.22,1.13V21a2.71,2.71,0,0,0,.22,1.13,2.5,2.5,0,0,    0,.57.84,2.53,2.53,0,0,0,.86.53A2.94,2.94,0,0,0,100,23.67Z"/>
        <path class="cls-2" d="M107.24,23.39h3.53V14.05h-3.41V11.61h6V23.39h3.29v2.44h-9.38Z"/>
        <path class="cls-2" d="M119.16,23.39h3.53V14.05h-3.41V11.61h6V23.39h3.29v2.44h-9.38Z"/>
        <path class="cls-2" d="M137.66,24.36a2.65,2.65,0,0,1-1.14,1.36,3.53,3.53,0,0,1-1.7.39,4.29,4.29,0,0,1-1.72-.34,4.11,4.11,0,0,1-1.41-1,5,5,0,    0,1-1-1.62,6.39,6.39,0,0,1-.35-2.18v-.32a6,6,0,0,1,.35-2.15,5.07,5.07,0,0,1,.93-1.63,3.87,3.87,0,0,1,1.37-1,4,4,0,0,1,1.68-.36,3.5,3.5,0,0, 1,1.73.37,2.57,2.57,0,0,1,1,1.13h.36V15.76h2.56v7c0,.41.18.61.55.61h.38v2.44h-1.74a1.6,1.6,0,0,1-1.13-.41,1.37,1.37,0,0, 1-.43-1.06Zm-2.28-.69a2.27,2.27,0,0,0,1.79-.74,2.87,2.87,0,0,0,.67-2v-.24a2.88,2.88,0,0,0-.67-2,2.52,2.52,0,0,0-3.57,0,2.88,2.88,0,0,0-.67,  2v.24a2.87,2.87,0,0,0,.67,2A2.27,2.27,0,0,0,135.38,23.67Z"/>
        <path class="cls-2" d="M145.19,25.83h-2.56V11.61h2.56v5.61h.37a2.9,2.9,0,0,1,1.18-1.29,3.76,3.76,0,0,1,2-.46,4.23,4.23,0,0,1,1.69.35,4,4,0, 0,1,1.4,1,5,5,0,0,1,1,1.62,6.33,6.33,0,0,1,.35,2.17V21a6.48,6.48,0,0,1-.34,2.2,4.82,4.82,0,0,1-.94,1.61,3.84,3.84,0,0,1-1.39,1,4.48,4.48,0,  0,1-1.73.33,4.71,4.71,0,0,1-1.2-.14,3.09,3.09,0,0,1-.88-.39A2.3,2.3,0,0,1,146,25a3.61,3.61,0,0,1-.44-.66h-.37Zm2.68-2.16a2.59,2.59,0,0,0, 1.94-.74,2.69,2.69,0,0,0,.74-2v-.24a2.7,2.7,0,0,0-.74-2,2.88,2.88,0,0,0-3.88,0,2.76,2.76,0,0,0-.74,2v.24a2.74,2.74,0,0,0,.74,2A2.58,2.58,0,  0,0,147.87,23.67Z"/>
        <path class="cls-2" d="M164.85,20.91a5.41,5.41,0,0,1-.43,2.23,4.77,4.77,0,0,1-1.15,1.62,5.13,5.13,0,0,1-1.68,1,5.94,5.94,0,0,1-4,0,5,5,0,0, 1-1.67-1,4.66,4.66,0,0,1-1.16-1.62,5.41,5.41,0,0,1-.43-2.23v-.24a5.27,5.27,0,0,1,.43-2.2A4.74,4.74,0,0,1,156,16.83a4.83,4.83,0,0,1,1.67-1,   5.78,5.78,0,0,1,4,0,5,5,0,0,1,1.68,1,4.85,4.85,0,0,1,1.15,1.64,5.27,5.27,0,0,1,.43,2.2Zm-5.24,2.76a2.94,2.94,0,0,0,1-.18,2.47,2.47,0,0,0,  1.44-1.37,2.88,2.88,0,0,0,.21-1.13v-.4a2.88,2.88,0,0,0-.21-1.13,2.47,2.47,0,0,0-1.44-1.37,2.94,2.94,0,0,0-1-.18,3,3,0,0,0-1,.18,2.59,2.59,0,  0,0-.85.53,2.68,2.68,0,0,0-.58.84,2.88,2.88,0,0,0-.21,1.13V21a2.88,2.88,0,0,0,.21,1.13,2.68,2.68,0,0,0,.58.84,2.59,2.59,0,0,0,.85.53A3,3,0,   0,0,159.61,23.67Z"/>
        <path class="cls-2" d="M166.41,15.76h4.27v1.46H171a2.4,2.4,0,0,1,1-1.29,2.81,2.81,0,0,1,1.63-.46,3.25,3.25,0,0,1,2.42.94,4,4,0,0,1,.91, 2.88v.45l-2.64.24v-.29a2,2,0,0,0-.42-1.33,1.86,1.86,0,0,0-2.62.1,2.53,2.53,0,0,0-.49,1.68v3.25h2.31v2.44h-6.94V23.39h2.07v-5.2h-1.83Z"/>
        <path class="cls-2" d="M185.34,24.36a2.65,2.65,0,0,1-1.14,1.36,3.58,3.58,0,0,1-1.7.39,4.29,4.29,0,0,1-1.72-.34,3.93,3.93,0,0,1-1.41-1,5,5,0,    0,1-1-1.62,6.39,6.39,0,0,1-.35-2.18v-.32a6.26,6.26,0,0,1,.34-2.15,5.09,5.09,0,0,1,.94-1.63,3.87,3.87,0,0,1,1.37-1,4,4,0,0,1,1.67-.36,3.51,  3.51,0,0,1,1.74.37,2.49,2.49,0,0,1,1,1.13h.37V15.76h2.56v7c0,.41.18.61.55.61H189v2.44h-1.74a1.6,1.6,0,0,1-1.13-.41,1.38,1.38,0,0, 1-.44-1.06Zm-2.28-.69a2.27,2.27,0,0,0,1.79-.74,2.87,2.87,0,0,0,.67-2v-.24a2.88,2.88,0,0,0-.67-2,2.52,2.52,0,0,0-3.57,0,2.88,2.88,0,0,0-.67,  2v.24a2.87,2.87,0,0,0,.67,2A2.25,2.25,0,0,0,183.06,23.67Z"/>
        <path class="cls-2" d="M190.46,15.76h3V11.61H196v4.15h3.63v2.43H196v4.59c0,.41.18.61.55.61h2.72v2.44H195a1.48,1.48,0,0,1-1.12-.45,1.58,1.58,    0,0,1-.44-1.14v-6h-3Z"/>
        <path class="cls-2" d="M202.84,23.39h3.41v-5.2h-3.16V15.76h5.72v7.63h2.93v2.44h-8.9Zm6.6-10.62a1.94,1.94,0,0,1-.15.76,1.75,1.75,0,0,    1-.42.61,1.92,1.92,0,0,1-.62.41,1.93,1.93,0,0,1-1.49,0,2.11,2.11,0,0,1-.61-.41,1.9,1.9,0,0,1-.42-.61,2,2,0,0,1,0-1.52,1.9,1.9,0,0,1,.42-.61,    2.11,2.11,0,0,1,.61-.41,1.93,1.93,0,0,1,1.49,0,1.92,1.92,0,0,1,.62.41,1.75,1.75,0,0,1,.42.61A1.94,1.94,0,0,1,209.44,12.77Z"/>
        <path class="cls-2" d="M213.87,15.76h2.76L219,24.61h.36l2.38-8.85h2.76l-2.88,10.07h-4.88Z"/>
        <path class="cls-2" d="M228.75,21.62a2.08,2.08,0,0,0,.22.83,2,2,0,0,0,.52.65,2.54,2.54,0,0,0,.78.42,2.77,2.77,0,0,0,.92.15,2.67,2.67,0,0,0, 1.46-.33,2,2,0,0,0,.73-.8l2.2,1.22a5.84,5.84,0,0,1-.51.8,3.51,3.51,0,0,1-.85.76,4.67,4.67,0,0,1-1.25.57,6.08,6.08,0,0,1-1.74.22,5.69,5.69,0, 0,1-2.07-.36A4.61,4.61,0,0,1,226.49,23a6.32,6.32,0,0,1-.38-2.25v-.12a5.33,5.33,0,0,1,.4-2.11,4.63,4.63,0,0,1,1.09-1.63,4.91,4.91,0,0,1,  1.61-1,5.17,5.17,0,0,1,2-.38,5,5,0,0,1,2.23.46A4.71,4.71,0,0,1,235,17.09a4.59,4.59,0,0,1,.89,1.54,5.08,5.08,0,0,1,.28,    1.63v1.36Zm2.42-3.83a2.45,2.45,0,0,0-1.59.49,2.31,2.31,0,0,0-.79,1.15h4.76a1.85,1.85,0,0,0-.77-1.18A2.65,2.65,0,0,0,231.17,17.79Z"/>
        <path class="cls-2" d="M252.81,22.78H248l-.69,3h-2.8l3.39-14.22h5l3.39,14.22h-2.8Zm-4.26-2.56h3.68L250.58,13h-.36Z"/>
        <path class="cls-2" d="M257.2,15.76h4.27v1.46h.36a2.4,2.4,0,0,1,1-1.29,2.81,2.81,0,0,1,1.63-.46,3.25,3.25,0,0,1,2.42.94,4,4,0,0,1,.91,  2.88v.45l-2.64.24v-.29a2,2,0,0,0-.42-1.33,1.62,1.62,0,0,0-1.28-.49,1.65,1.65,0,0,0-1.35.59,2.59,2.59,0,0,0-.48,   1.68v3.25h2.31v2.44H257V23.39H259v-5.2H257.2Z"/>
        <path class="cls-2" d="M269.32,15.76h3V11.61h2.56v4.15h3.63v2.43h-3.63v4.59c0,.41.18.61.55.61h2.72v2.44h-4.27a1.52,1.52,0,0,1-1.13-.45,1.57,    1.57,0,0,1-.43-1.14v-6h-3Z"/>
        <path class="cls-2" d="M292.57,18.64h6.1v7.19h-2.44V24.24h-.37a2.62,2.62,0,0,1-.93,1.33,3.32,3.32,0,0,1-2.07.54,4.67,4.67,0,0,1-1.83-.36,  4.16,4.16,0,0,1-1.48-1.09,5.42,5.42,0,0,1-1-1.79,7.78,7.78,0,0,1-.36-2.49V17.05a7.06,7.06,0,0,1,.39-2.44,5.25,5.25,0,0,1,1.1-1.8,4.57,4.57,   0,0,1,1.68-1.11,5.92,5.92,0,0,1,2.15-.37,5.67,5.67,0,0,1,2.17.39,4.67,4.67,0,0,1,2.64,2.75,5.79,5.79,0,0,1,.35,2v.24H296v-.24a2.62,2.62,0,0,   0-.66-1.94,2.53,2.53,0,0,0-1.86-.66,2.47,2.47,0,0,0-1.87.76,3.72,3.72,0,0,0-.73,2.61v3c0,2.2.89,3.29,2.68,3.29a2.42,2.42,0,0,0,    1.82-.64A2.36,2.36,0,0,0,296,21.2h-3.42Z"/>
        <path class="cls-2" d="M307.32,24.36a2.65,2.65,0,0,1-1.14,1.36,3.6,3.6,0,0,1-1.71.39,4.28,4.28,0,0,1-1.71-.34,3.93,3.93,0,0,1-1.41-1,5,5,0, 0,1-1-1.62A6.16,6.16,0,0,1,300,21v-.32a6.26,6.26,0,0,1,.34-2.15,4.91,4.91,0,0,1,.94-1.63,3.79,3.79,0,0,1,1.37-1,4,4,0,0,1,1.67-.36,3.51, 3.51,0,0,1,1.74.37,2.49,2.49,0,0,1,1,1.13h.37V15.76h2.56v7c0,.41.18.61.55.61H311v2.44h-1.74a1.6,1.6,0,0,1-1.13-.41,1.38,1.38,0,0,    1-.44-1.06ZM305,23.67a2.27,2.27,0,0,0,1.79-.74,2.87,2.87,0,0,0,.67-2v-.24a2.88,2.88,0,0,0-.67-2,2.52,2.52,0,0,0-3.57,0,2.88,2.88,0,0,0-.67, 2v.24a2.87,2.87,0,0,0,.67,2A2.25,2.25,0,0,0,305,23.67Z"/>
        <path class="cls-2" d="M322.83,25.83h-2.56V18.76a.88.88,0,0,0-.21-.64.76.76,0,0,0-.56-.21.86.86,0,0,0-.64.24,1,1,0,0,   0-.23.73v7h-2.56V18.76a.85.85,0,0,0-.23-.64.83.83,0,0,0-.56-.21.82.82,0,0,0-.61.24,1,1,0,0,0-.25.73v7h-2.55V15.76h2.55v1h.37a1.53,1.53,0,0,    1,.56-.9,1.73,1.73,0,0,1,1.14-.36,1.81,1.81,0,0,1,1.14.36,1.69,1.69,0,0,1,.63.9h.37a1.59,1.59,0,0,1,.68-.9,2.18,2.18,0,0,1,1.29-.36,2.09,   2.09,0,0,1,1.62.68,2.69,2.69,0,0,1,.61,1.88Z"/>
        <path class="cls-2" d="M326.89,21.62a2.08,2.08,0,0,0,.22.83,2,2,0,0,0,.52.65,2.61,2.61,0,0,0,.77.42,2.88,2.88,0,0,0,.93.15,2.67,2.67,0,0,0, 1.46-.33,2,2,0,0,0,.73-.8l2.2,1.22a5.84,5.84,0,0,1-.51.8,3.65,3.65,0,0,1-.84.76,4.89,4.89,0,0,1-1.26.57,6.08,6.08,0,0,1-1.74.22,5.69,5.69,0, 0,1-2.07-.36A4.54,4.54,0,0,1,324.63,23a6.32,6.32,0,0,1-.38-2.25v-.12a5.33,5.33,0,0,1,.4-2.11,4.74,4.74,0,0,1,1.08-1.63,5.17,5.17,0,0,1,  1.62-1,5.25,5.25,0,0,1,2-.38,4.93,4.93,0,0,1,2.23.46,4.71,4.71,0,0,1,1.55,1.16,4.59,4.59,0,0,1,.89,1.54,5.08,5.08,0,0,1,.28,  1.63v1.36Zm2.42-3.83a2.45,2.45,0,0,0-1.59.49,2.31,2.31,0,0,0-.79,1.15h4.75a1.79,1.79,0,0,0-.76-1.18A2.65,2.65,0,0,0,329.31,17.79Z"/>
        <path class="cls-3" d="M39.88,36.89H42V35.36a1.45,1.45,0,0,1,.44-1.09,1.4,1.4,0,0,1,1.08-.44h3v1.8H44.3c-.27,   0-.41.15-.41.45v.81h2.92v1.8H43.89v5.64H42V38.69H39.88Z"/>
        <path class="cls-3" d="M55.66,40.7a4,4,0,0,1-.31,1.64,3.47,3.47,0,0,1-.86,1.2,3.85,3.85,0,0,1-1.23.74,4.26,4.26,0,0,1-2.93,0,4,4,0,0,   1-1.24-.74,3.58,3.58,0,0,1-.85-1.2,4,4,0,0,1-.32-1.64v-.18a4,4,0,0,1,.32-1.63,3.53,3.53,0,0,1,.85-1.21,3.85,3.85,0,0,1,1.24-.75,4.42,4.42,0,   0,1,2.93,0,3.7,3.7,0,0,1,1.23.75,3.42,3.42,0,0,1,.86,1.21,4,4,0,0,1,.31,1.63Zm-3.86,2a2.18,2.18,0,0,0,.76-.14,1.86,1.86,0,0,0,.63-.39,2,2,0,   0,0,.43-.62,2.19,2.19,0,0,0,.16-.83v-.3a2.24,2.24,0,0,0-.16-.84,2,2,0,0,0-.43-.62,1.86,1.86,0,0,0-.63-.39,2.32,2.32,0,0,0-1.53,0,1.86,1.86,    0,0,0-.63.39,2,2,0,0,0-.43.62,2.24,2.24,0,0,0-.16.84v.3a2.19,2.19,0,0,0,.16.83,2,2,0,0,0,.43.62,1.86,1.86,0,0,0,.63.39A2.19,2.19,0,0,0,51.8,    42.74Z"/>
        <path class="cls-3" d="M56.45,36.89H59.6V38h.27a1.82,1.82,0,0,1,.71-1,2.12,2.12,0,0,1,1.21-.33,2.37,2.37,0,0,1,1.78.69,3,3,0,0,1,.68,   2.13v.33l-2,.18V39.8a1.49,1.49,0,0,0-.32-1,1.18,1.18,0,0,0-.94-.36,1.21,1.21,0,0,0-1,.43,1.86,1.86,0,0,0-.36,  1.25v2.4h1.7v1.8H56.27v-1.8H57.8V38.69H56.45Z"/>
        <path class="cls-3" d="M75.88,37a1.49,1.49,0,0,0-.48-1.1A1.91,1.91,0,0,0,74,35.48a2.08,2.08,0,0,0-1.19.3,1,1,0,0,0-.44.84,1.06,1.06,0,0,0,  .11.48.91.91,0,0,0,.37.39,2.48,2.48,0,0,0,.69.31,9.1,9.1,0,0,0,1.08.26,5.56,5.56,0,0,1,2.52,1,2.54,2.54,0,0,1,.88,2.09v.18a3.11,3.11,0,0, 1-.27,1.32,2.71,2.71,0,0,1-.75,1,3.4,3.4,0,0,1-1.21.64,5.21,5.21,0,0,1-1.59.23,5.15,5.15,0,0,1-1.82-.3,3.55,3.55,0,0,1-1.31-.81,3.41,3.41,0, 0,1-.8-1.21A4.41,4.41,0,0,1,70,40.7v-.45h2v.36a2.06,2.06,0,0,0,.55,1.5,2.27,2.27,0,0,0,1.7.57,2,2,0,0,0,1.34-.39,1.21,1.21,0,0,0,.44-.93,    1.58,1.58,0,0,0-.09-.49,1.07,1.07,0,0,0-.32-.42,2,2,0,0,0-.62-.34,5.54,5.54,0,0,0-1-.25,9.17,9.17,0,0,1-1.46-.36,4,4,0,0,1-1.15-.57,2.54,   2.54,0,0,1-.76-.9,2.93,2.93,0,0,1-.27-1.32v-.09a2.71,2.71,0,0,1,.27-1.2,2.92,2.92,0,0,1,.73-1,3.5,3.5,0,0,1,1.14-.63,4.68,4.68,0,0,1,  1.5-.22,4.63,4.63,0,0,1,1.64.26,3.43,3.43,0,0,1,1.21.71,3,3,0,0,1,.74,1,3.22,3.22,0,0,1,.25,1.23v.54h-2Z"/>
        <path class="cls-3" d="M81,44.33H79.13V33.83H81v4.26h.27A2.26,2.26,0,0,1,82.13,37a2.44,2.44,0,0,1,1.36-.36,2.8,2.8,0,0,1,1,.18,2.22,2.22,0, 0,1,.81.54,2.44,2.44,0,0,1,.54.92,4.06,4.06,0,0,1,.19,1.33v4.68H84.17V40.1a1.9,1.9,0,0,0-.39-1.26,1.35,1.35,0,0,0-1.1-.45,1.43,1.43,0,0, 0-1.25.56A2.46,2.46,0,0,0,81,40.46Z"/>
        <path class="cls-3" d="M92.34,43.25a1.9,1.9,0,0,1-.84,1,2.55,2.55,0,0,1-1.26.3A3.21,3.21,0,0,1,89,44.28a3,3,0,0,1-1-.75,3.57,3.57,0,0,  1-.71-1.2,4.44,4.44,0,0,1-.26-1.6v-.24a4.65,4.65,0,0,1,.25-1.59,3.7,3.7,0,0,1,.69-1.2,3,3,0,0,1,1-.76,2.9,2.9,0,0,1,1.24-.26,2.62,2.62,0,0,   1,1.28.27,1.88,1.88,0,0,1,.78.84h.26v-.9h1.9v5.19c0,.3.13.45.4.45h.28v1.8H93.77a1.2,1.2,0,0,1-.84-.3,1,1,0,0,1-.32-.78Zm-1.68-.51A1.71,1.71,   0,0,0,92,42.19a2.14,2.14,0,0,0,.49-1.49v-.18A2.17,2.17,0,0,0,92,39a1.88,1.88,0,0,0-2.64,0,2.17,2.17,0,0,0-.49,1.5v.18a2.14,2.14,0,0,0,.49, 1.49A1.71,1.71,0,0,0,90.66,42.74Z"/>
        <path class="cls-3" d="M95.59,36.89h3.15V38H99a1.77,1.77,0,0,1,.71-1,2.15,2.15,0,0,1,1.21-.33,2.39,2.39,0,0,1,1.78.69,3,3,0,0,1,.67,    2.13v.33l-1.94.18V39.8a1.49,1.49,0,0,0-.32-1,1.18,1.18,0,0,0-.94-.36,1.21,1.21,0,0,0-1,.43,1.92,1.92,0,0,0-.37, 1.25v2.4h1.72v1.8H95.41v-1.8H97V38.69H95.59Z"/>
        <path class="cls-3" d="M104.52,42.53H107V38.69H104.7v-1.8h4.23v5.64h2.16v1.8h-6.57Zm4.87-7.85a1.3,1.3,0,0,1-.11.56,1.21,1.21,0,0,1-.31.45,  1.37,1.37,0,0,1-.45.3,1.33,1.33,0,0,1-.55.12,1.31,1.31,0,0,1-.56-.12,1.23,1.23,0,0,1-.44-.3,1.1,1.1,0,0,1-.31-.45,1.48,1.48,0,0,1,0-1.12, 1.1,1.1,0,0,1,.31-.45,1.23,1.23,0,0,1,.44-.3,1.3,1.3,0,0,1,.56-.11,1.32,1.32,0,0,1,.55.11,1.37,1.37,0,0,1,.45.3,1.21,1.21,0,0,1,.31.45A1.3,  1.3,0,0,1,109.39,34.68Z"/>
        <path class="cls-3" d="M114.71,44.33h-1.9V36.89h1.9V38H115a2,2,0,0,1,.83-1,2.53,2.53,0,0,1,1.33-.34,2.88,2.88,0,0,1,1,.17,2.22,2.22,0,0,1,  .83.53,2.42,2.42,0,0,1,.56.92,3.74,3.74,0,0,1,.2,1.32v4.71h-1.88V40.1a1.9,1.9,0,0,0-.39-1.26,1.35,1.35,0,0,0-1.1-.45,1.43,1.43,0,0,   0-1.25.56,2.46,2.46,0,0,0-.41,1.51Z"/>
        <path class="cls-3" d="M126.55,43.25h-.26a2.41,2.41,0,0,1-.3.48,1.52,1.52,0,0,1-.45.42,2.22,2.22,0,0,1-.66.28,3.46,3.46,0,0,1-.92.11,3.36,  3.36,0,0,1-1.28-.25,2.92,2.92,0,0,1-1-.74,3.55,3.55,0,0,1-.69-1.19,5,5,0,0,1-.24-1.62v-.27a4.44,4.44,0,0,1,.26-1.6,3.43,3.43,0,0,1,.72-1.2,   3.12,3.12,0,0,1,1.06-.74,3.3,3.3,0,0,1,1.29-.25,2.66,2.66,0,0,1,1.42.33,2.44,2.44,0,0,1,.83,1h.26V36.89h1.9v9.27a1.14,1.14,0,0,1-.33.84,1.1,   1.1,0,0,1-.83.33h-5v-1.8h3.87c.27,0,.4-.15.4-.45Zm-2-.51a1.92,1.92,0,0,0,1.44-.57,2,2,0,0,0,.54-1.47v-.18A2,2,0,0,0,126,39a1.91,1.91,0,0,  0-1.44-.56,2,2,0,0,0-1.43.54,2.06,2.06,0,0,0-.55,1.5v.18a2,2,0,0,0,.55,1.49A2,2,0,0,0,124.57,42.74Z"/>
        <path class="cls-3" d="M139.92,43.25a1.9,1.9,0,0,1-.84,1,2.55,2.55,0,0,1-1.26.3,3.21,3.21,0,0,1-1.27-.26,3,3,0,0,1-1-.75,3.57,3.57,0,0, 1-.71-1.2,4.44,4.44,0,0,1-.26-1.6v-.24a4.65,4.65,0,0,1,.25-1.59,3.7,3.7,0,0,1,.69-1.2,3,3,0,0,1,1-.76,2.9,2.9,0,0,1,1.24-.26A2.62,2.62,0,0,  1,139,37a1.88,1.88,0,0,1,.78.84h.26v-.9H142v5.19c0,.3.13.45.4.45h.28v1.8h-1.28a1.2,1.2,0,0,1-.84-.3,1,1,0,0,1-.32-.78Zm-1.68-.51a1.71,1.71,   0,0,0,1.32-.55,2.14,2.14,0,0,0,.49-1.49v-.18a2.17,2.17,0,0,0-.49-1.5,1.88,1.88,0,0,0-2.64,0,2.17,2.17,0,0,0-.49,1.5v.18a2.14,2.14,0,0,0,.49,   1.49A1.71,1.71,0,0,0,138.24,42.74Z"/>
        <path class="cls-3" d="M145.42,44.33h-1.88V36.89h1.88V38h.28a2,2,0,0,1,.82-1,2.54,2.54,0,0,1,1.34-.34,2.82,2.82,0,0,1,1,.17,2.22,2.22,0,0,1,    .83.53,2.42,2.42,0,0,1,.56.92,3.73,3.73,0,0,1,.21,1.32v4.71h-1.9V40.1a1.9,1.9,0,0,0-.38-1.26,1.35,1.35,0,0,0-1.1-.45,1.43,1.43,0,0, 0-1.25.56,2.46,2.46,0,0,0-.42,1.51Z"/>
        <path class="cls-3" d="M157.3,43.25H157a2.41,2.41,0,0,1-.3.48,1.52,1.52,0,0,1-.45.42,2.22,2.22,0,0,1-.66.28,3.46,3.46,0,0,1-.92.11,3.36,    3.36,0,0,1-1.28-.25,2.92,2.92,0,0,1-1-.74,3.55,3.55,0,0,1-.69-1.19,5,5,0,0,1-.24-1.62v-.27a4.44,4.44,0,0,1,.26-1.6,3.43,3.43,0,0,1,.72-1.2, 3.12,3.12,0,0,1,1.06-.74,3.3,3.3,0,0,1,1.29-.25,2.66,2.66,0,0,1,1.42.33,2.44,2.44,0,0,1,.83,1h.26V33.83h1.9v10.5h-1.9Zm-2-.51a1.92,1.92,0,0, 0,1.44-.57,2,2,0,0,0,.54-1.47v-.18a2,2,0,0,0-.54-1.48,1.91,1.91,0,0,0-1.44-.56,2,2,0,0,0-1.43.54,2.06,2.06,0,0,0-.55,1.5v.18a2,2,0,0,0,.55,  1.49A2,2,0,0,0,155.32,42.74Z"/>
        <path class="cls-3" d="M172.8,44.33h-2V41.18a.87.87,0,0,0-.19-.59.75.75,0,0,0-.62-.22h-2.28v4h-2V33.83h4a4.17,4.17,0,0,1,1.43.22,2.88,2.88, 0,0,1,1,.62,2.65,2.65,0,0,1,.63.93,2.8,2.8,0,0,1,.22,1.12v.36a2.19,2.19,0,0,1-1.41,2.07v.27a1.23,1.23,0,0,1,1.14,1.28Zm-5.07-5.85h1.89a1.63, 1.63,0,0,0,1.1-.34,1.21,1.21,0,0,0,.37-1V37a1.25,1.25,0,0,0-.37-.91,1.46,1.46,0,0,0-1.1-.38h-1.89Z"/>
        <path class="cls-3" d="M175.92,41.22a1.42,1.42,0,0,0,.16.61,1.48,1.48,0,0,0,.39.48,1.74,1.74,0,0,0,.57.31,1.91,1.91,0,0,0,.68.12,2,2,0,0,0, 1.08-.25,1.51,1.51,0,0,0,.54-.59l1.62.9a3.42,3.42,0,0,1-.38.59A2.62,2.62,0,0,1,180,44a3.34,3.34,0,0,1-.93.42,4.41,4.41,0,0,1-1.28.17,4.17,   4.17,0,0,1-1.53-.27,3.33,3.33,0,0,1-1.19-.78,3.4,3.4,0,0,1-.78-1.25,4.55,4.55,0,0,1-.28-1.66v-.09a4.13,4.13,0,0,1,.29-1.56,3.61,3.61,0,0,1,    .8-1.2,3.77,3.77,0,0,1,1.2-.78,3.91,3.91,0,0,1,1.46-.27,3.79,3.79,0,0,1,1.65.33,3.57,3.57,0,0,1,1.14.86,3.27,3.27,0,0,1,.66,1.14,3.76,3.76, 0,0,1,.21,1.21v1Zm1.79-2.83a1.78,1.78,0,0,0-1.17.36,1.66,1.66,0,0,0-.59.85h3.51a1.35,1.35,0,0,0-.56-.87A2,2,0,0,0,177.71,38.39Z"/>
        <path class="cls-3" d="M185.05,39a.53.53,0,0,0,.38.51,5.17,5.17,0,0,0,1.37.27,3.48,3.48,0,0,1,1.85.68,1.88,1.88,0,0,1,.73,1.57v.09a2.15,    2.15,0,0,1-.82,1.77,3.47,3.47,0,0,1-2.27.66,4.36,4.36,0,0,1-1.49-.23,3.52,3.52,0,0,1-1-.56,2.53,2.53,0,0,1-.62-.75,2.78,2.78,0,0,   1-.29-.8l1.74-.57a1.53,1.53,0,0,0,1.68,1.2,1.57,1.57,0,0,0,1-.22.62.62,0,0,0,.27-.47.57.57,0,0,0-.32-.52,1.52,1.52,0,0,0-.49-.19,5.47,5.47,    0,0,0-.77-.12,3.88,3.88,0,0,1-2-.65,1.86,1.86,0,0,1-.74-1.61V39a2,2,0,0,1,.24-1,2.23,2.23,0,0,1,.62-.71,2.75,2.75,0,0,1,.91-.44,3.6,3.6,0,0,    1,1.05-.15,3.79,3.79,0,0,1,1.22.17,2.81,2.81,0,0,1,.88.45,2.56,2.56,0,0,1,.58.61,3.55,3.55,0,0,1,.35.66l-1.71.69a1.23,1.23,0,0,0-.47-.64,   1.4,1.4,0,0,0-.85-.23,1.2,1.2,0,0,0-.72.17A.5.5,0,0,0,185.05,39Z"/>
        <path class="cls-3" d="M198.4,40.7a4,4,0,0,1-.31,1.64,3.47,3.47,0,0,1-.86,1.2,3.74,3.74,0,0,1-1.23.74,4.24,4.24,0,0,1-1.46.26,4.29,4.29,0,0,    1-1.47-.26,4,4,0,0,1-1.24-.74,3.58,3.58,0,0,1-.85-1.2,4,4,0,0,1-.32-1.64v-.18a4,4,0,0,1,.32-1.63,3.53,3.53,0,0,1,.85-1.21,3.85,3.85,0,0,1,  1.24-.75,4.28,4.28,0,0,1,1.47-.25,4.23,4.23,0,0,1,1.46.25,3.6,3.6,0,0,1,1.23.75,3.42,3.42,0,0,1,.86,1.21,4,4,0,0,1,.31,1.63Zm-3.86,2a2.18,    2.18,0,0,0,.76-.14,1.86,1.86,0,0,0,.63-.39,2,2,0,0,0,.43-.62,2.19,2.19,0,0,0,.16-.83v-.3a2.24,2.24,0,0,0-.16-.84,2,2,0,0,0-.43-.62,1.86,    1.86,0,0,0-.63-.39,2.32,2.32,0,0,0-1.53,0,1.86,1.86,0,0,0-.63.39,2,2,0,0,0-.43.62,2.24,2.24,0,0,0-.16.84v.3a2.19,2.19,0,0,0,.16.83,2,2,0,0, 0,.43.62,1.86,1.86,0,0,0,.63.39A2.19,2.19,0,0,0,194.54,42.74Z"/>
        <path class="cls-3" d="M199.5,42.53h2.61v-6.9h-2.52v-1.8H204v8.7h2.43v1.8H199.5Z"/>
        <path class="cls-3" d="M207.45,36.89h2l1.76,6.54h.27l1.75-6.54h2l-2.13,7.44h-3.6Z"/>
        <path class="cls-3" d="M216.54,42.53h2.52V38.69h-2.34v-1.8H221v5.64h2.16v1.8h-6.57Zm4.87-7.85a1.3,1.3,0,0,1-.11.56,1.1,1.1,0,0,1-.31.45,    1.27,1.27,0,0,1-.45.3,1.33,1.33,0,0,1-.55.12,1.26,1.26,0,0,1-.55-.12,1.52,1.52,0,0,1-.46-.3,1.44,1.44,0,0,1,0-2,1.52,1.52,0,0,1,.46-.3,1.26,    1.26,0,0,1,.55-.11,1.32,1.32,0,0,1,.55.11,1.27,1.27,0,0,1,.45.3,1.1,1.1,0,0,1,.31.45A1.3,1.3,0,0,1,221.41,34.68Z"/>
        <path class="cls-3" d="M226.72,44.33h-1.89V36.89h1.89V38H227a2,2,0,0,1,.83-1,2.51,2.51,0,0,1,1.33-.34,2.88,2.88,0,0,1,1,.17,2.22,2.22,0,0,1,    .83.53,2.42,2.42,0,0,1,.56.92,3.74,3.74,0,0,1,.2,1.32v4.71h-1.88V40.1a1.9,1.9,0,0,0-.39-1.26,1.35,1.35,0,0,0-1.1-.45,1.43,1.43,0,0, 0-1.25.56,2.46,2.46,0,0,0-.42,1.51Z"/>
        <path class="cls-3" d="M238.58,43.25h-.28a2.36,2.36,0,0,1-.29.48,1.52,1.52,0,0,1-.45.42,2.22,2.22,0,0,1-.66.28,3.46,3.46,0,0,1-.92.11,3.36, 3.36,0,0,1-1.28-.25,2.92,2.92,0,0,1-1-.74,3.55,3.55,0,0,1-.69-1.19,5,5,0,0,1-.25-1.62v-.27a4.44,4.44,0,0,1,.27-1.6,3.43,3.43,0,0,1,.72-1.2,  3.12,3.12,0,0,1,1.06-.74,3.32,3.32,0,0,1,1.28-.25,2.68,2.68,0,0,1,1.43.33,2.27,2.27,0,0,1,.82,1h.28V36.89h1.89v9.27a1.14,1.14,0,0,1-.33.84,   1.1,1.1,0,0,1-.83.33h-5v-1.8h3.87c.27,0,.41-.15.41-.45Zm-2-.51a1.9,1.9,0,0,0,1.43-.57,2,2,0,0,0,.55-1.47v-.18A2,2,0,0,0,238,39a1.89,1.89,0,    0,0-1.43-.56,2,2,0,0,0-1.44.54,2.06,2.06,0,0,0-.54,1.5v.18a2,2,0,0,0,.54,1.49A2,2,0,0,0,236.6,42.74Z"/>
        <path class="cls-3" d="M250.57,42.74a2.1,2.1,0,0,0,.94-.18,1.32,1.32,0,0,0,.57-.46,1.72,1.72,0,0,0,.28-.68,4,4,0,0,0,   .08-.78v-.27h2v.27a3.93,3.93,0,0,1-1,2.88,4.38,4.38,0,0,1-5.71-.08,4.47,4.47,0,0,1-1.05-3.19V37.91A5.37,5.37,0,0,1,247,36.1a3.57,3.57,0,0,1,   .77-1.35,3.25,3.25,0,0,1,1.24-.84,4.13,4.13,0,0,1,1.61-.29,4.64,4.64,0,0,1,1.65.27,3.09,3.09,0,0,1,1.21.78,3.32,3.32,0,0,1,.74,1.23,5.11,  5.11,0,0,1,.24,1.62v.27h-2v-.27a3.22,3.22,0,0,0-.1-.75,2,2,0,0,0-.29-.68,1.65,1.65,0,0,0-.58-.49,2,2,0,0,0-.9-.18,1.69,1.69,0,0,0-1.45.69,    2.15,2.15,0,0,0-.35.75,3.37,3.37,0,0,0-.12.9V40.4a3.83,3.83,0,0,0,.11.93,2.14,2.14,0,0,0,.33.75,1.46,1.46,0,0,0,.59.48A2,2,0,0,0,250.57,    42.74Z"/>
        <path class="cls-3" d="M262.84,40.7a4,4,0,0,1-.31,1.64,3.47,3.47,0,0,1-.86,1.2,3.85,3.85,0,0,1-1.23.74,4.26,4.26,0,0,1-2.93,0,3.89,3.89,0,0,    1-1.24-.74,3.58,3.58,0,0,1-.85-1.2,4,4,0,0,1-.32-1.64v-.18a4,4,0,0,1,.32-1.63,3.53,3.53,0,0,1,.85-1.21,3.75,3.75,0,0,1,1.24-.75,4.42,4.42,0,    0,1,2.93,0,3.7,3.7,0,0,1,1.23.75,3.42,3.42,0,0,1,.86,1.21,4,4,0,0,1,.31,1.63Zm-3.87,2a2.19,2.19,0,0,0,.77-.14,1.86,1.86,0,0,0,.63-.39,2,2,0,    0,0,.43-.62,2.19,2.19,0,0,0,.16-.83v-.3a2.24,2.24,0,0,0-.16-.84,2,2,0,0,0-.43-.62,1.86,1.86,0,0,0-.63-.39,2.32,2.32,0,0,0-1.53,0,1.86,1.86, 0,0,0-.63.39,2,2,0,0,0-.43.62,2.24,2.24,0,0,0-.16.84v.3a2.19,2.19,0,0,0,.16.83,2,2,0,0,0,.43.62,1.86,1.86,0,0,0,.63.39A2.18,2.18,0,0,0,259,  42.74Z"/>
        <path class="cls-3" d="M265.88,44.33H264V36.89h1.9V38h.26a2,2,0,0,1,.83-1,2.53,2.53,0,0,1,1.33-.34,2.88,2.88,0,0,1,1,.17,2.22,2.22,0,0,1,   .83.53,2.42,2.42,0,0,1,.56.92,3.74,3.74,0,0,1,.2,1.32v4.71H269V40.1a1.9,1.9,0,0,0-.39-1.26,1.35,1.35,0,0,0-1.1-.45,1.43,1.43,0,0,0-1.25.56,    2.46,2.46,0,0,0-.41,1.51Z"/>
        <path class="cls-3" d="M276.76,38.69h-1.51v5.64h-1.89V38.69h-1.75v-1.8h1.75V35.36a1.45,1.45,0,0,1,.44-1.09,1.42,1.42,0,0,1, 1.08-.44h4.5v10.5h-1.9v-8.7h-1.83c-.27,0-.4.15-.4.45v.81h1.51Z"/>
        <path class="cls-3" d="M281,42.53h2.52V38.69h-2.34v-1.8h4.23v5.64h2.16v1.8H281Zm4.87-7.85a1.3,1.3,0,0,1-.11.56,1.21,1.21,0,0,1-.31.45,1.37, 1.37,0,0,1-.45.3,1.33,1.33,0,0,1-.55.12,1.26,1.26,0,0,1-.55-.12,1.41,1.41,0,0,1-.46-.3,1.44,1.44,0,0,1,0-2,1.41,1.41,0,0,1,.46-.3,1.26,1.26, 0,0,1,.55-.11,1.32,1.32,0,0,1,.55.11,1.37,1.37,0,0,1,.45.3,1.21,1.21,0,0,1,.31.45A1.3,1.3,0,0,1,285.85,34.68Z"/>
        <path class="cls-3" d="M296.54,41.6a3.63,3.63,0,0,1-1.21,2.13,3.8,3.8,0,0,1-2.54.81,4.48,4.48,0,0,1-1.54-.26,3.57,3.57,0,0,1-1.24-.73,3.25, 3.25,0,0,1-.82-1.19,3.87,3.87,0,0,1-.31-1.6v-.18a4,4,0,0,1,.31-1.62,3.39,3.39,0,0,1,.83-1.23,3.63,3.63,0,0,1,1.24-.78,4.28,4.28,0,0,1,   1.53-.27,3.79,3.79,0,0,1,2.52.81,3.55,3.55,0,0,1,1.23,2.13l-1.86.48a2,2,0,0,0-.57-1.14,1.84,1.84,0,0,0-1.35-.48,2,2,0,0,0-.77.15,1.93,1.93,    0,0,0-.63.42,2.13,2.13,0,0,0-.43.68,2.48,2.48,0,0,0-.15.89v.09a2.42,2.42,0,0,0,.15.88,2,2,0,0,0,.43.64,1.83,1.83,0,0,0,.63.38,2.39,2.39,0,0,    0,.77.13,1.84,1.84,0,0,0,1.32-.44,2.06,2.06,0,0,0,.6-1.17Z"/>
        <path class="cls-3" d="M297.49,36.89h2.21V33.83h1.89v3.06h2.69v1.8h-2.69v3.39c0,.3.13.45.4.45h2v1.8h-3.14A1.12,1.12,0,0,1,300,44a1.17,1.17, 0,0,1-.32-.84V38.69h-2.21Z"/>
        <path class="cls-3" d="M311.21,33.83h7.56v1.89H316v8.61h-2V35.72h-2.78Z"/>
        <path class="cls-3" d="M327.29,40.7a4,4,0,0,1-.32,1.64,3.73,3.73,0,0,1-.85,1.2,4,4,0,0,1-1.24.74,4.29,4.29,0,0,1-1.47.26,4.24,4.24,0,0, 1-1.46-.26,3.74,3.74,0,0,1-1.23-.74,3.61,3.61,0,0,1-.86-1.2,4,4,0,0,1-.31-1.64v-.18a4,4,0,0,1,.31-1.63,3.55,3.55,0,0,1,.86-1.21,3.6,3.6,0,0, 1,1.23-.75,4.23,4.23,0,0,1,1.46-.25,4.28,4.28,0,0,1,1.47.25,3.85,3.85,0,0,1,1.24.75,3.67,3.67,0,0,1,.85,1.21,4,4,0,0,1,.32,1.63Zm-3.88,  2a2.15,2.15,0,0,0,.77-.14,1.86,1.86,0,0,0,.63-.39,2,2,0,0,0,.43-.62,2.19,2.19,0,0,0,.15-.83v-.3a2.24,2.24,0,0,0-.15-.84,2,2,0,0,0-.43-.62,    1.86,1.86,0,0,0-.63-.39,2.32,2.32,0,0,0-1.53,0A1.86,1.86,0,0,0,322,39a2,2,0,0,0-.43.62,2.24,2.24,0,0,0-.15.84v.3a2.19,2.19,0,0,0,.15.83,2,2,    0,0,0,.43.62,1.86,1.86,0,0,0,.63.39A2.14,2.14,0,0,0,323.41,42.74Z"/>
        <path class="cls-3" d="M333.73,43.25h-.26a3,3,0,0,1-.3.48,1.52,1.52,0,0,1-.45.42,2.22,2.22,0,0,1-.66.28,3.46,3.46,0,0,1-.92.11,3.36,3.36,0, 0,1-1.28-.25,2.92,2.92,0,0,1-1-.74,3.55,3.55,0,0,1-.69-1.19,5,5,0,0,1-.25-1.62v-.27a4.44,4.44,0,0,1,.27-1.6,3.43,3.43,0,0,1,.72-1.2,3.12,    3.12,0,0,1,1.06-.74,3.3,3.3,0,0,1,1.29-.25,2.66,2.66,0,0,1,1.42.33,2.44,2.44,0,0,1,.83,1h.26V36.89h1.9v9.27a1.14,1.14,0,0,1-.33.84,1.1,1.1, 0,0,1-.83.33h-5v-1.8h3.87c.27,0,.4-.15.4-.45Zm-2-.51a1.92,1.92,0,0,0,1.44-.57,2,2,0,0,0,.54-1.47v-.18a2,2,0,0,0-.54-1.48,1.91,1.91,0,0,  0-1.44-.56,2,2,0,0,0-1.43.54,2.06,2.06,0,0,0-.55,1.5v.18a2,2,0,0,0,.55,1.49A2,2,0,0,0,331.75,42.74Z"/>
        <path class="cls-3" d="M338.52,41.22a1.42,1.42,0,0,0,.16.61,1.48,1.48,0,0,0,.39.48,1.74,1.74,0,0,0,.57.31,1.91,1.91,0,0,0,.68.12,2,2,0,0,0, 1.08-.25,1.51,1.51,0,0,0,.54-.59l1.62.9a3.32,3.32,0,0,1-.37.59,2.68,2.68,0,0,1-.63.56,3.34,3.34,0,0,1-.93.42,4.41,4.41,0,0,1-1.28.17,4.17,   4.17,0,0,1-1.53-.27,3.33,3.33,0,0,1-1.19-.78,3.4,3.4,0,0,1-.78-1.25,4.55,4.55,0,0,1-.28-1.66v-.09a4.13,4.13,0,0,1,.29-1.56,3.48,3.48,0,0,1,    .81-1.2,3.72,3.72,0,0,1,1.19-.78,3.91,3.91,0,0,1,1.46-.27A3.79,3.79,0,0,1,342,37a3.57,3.57,0,0,1,1.14.86,3.27,3.27,0,0,1,.66,1.14,3.76,3.76,    0,0,1,.21,1.21v1Zm1.78-2.83a1.83,1.83,0,0,0-1.17.36,1.76,1.76,0,0,0-.58.85h3.51a1.35,1.35,0,0,0-.56-.87A2,2,0,0,0,340.3,38.39Z"/>
        <path class="cls-3" d="M345.07,36.89h2.21V33.83h1.89v3.06h2.69v1.8h-2.69v3.39c0,.3.13.45.4.45h2v1.8h-3.14a1.12,1.12,0,0,1-.84-.33,1.17,1.17,    0,0,1-.32-.84V38.69h-2.21Z"/>
        <path class="cls-3" d="M355.63,44.33h-1.89V33.83h1.89v4.26h.27a2.39,2.39,0,0,1,.84-1.05,2.5,2.5,0,0,1,1.37-.36,2.8,2.8,0,0,1,1,.18,2.22,    2.22,0,0,1,.81.54,2.44,2.44,0,0,1,.54.92,4.06,4.06,0,0,1,.19,1.33v4.68h-1.88V40.1a1.9,1.9,0,0,0-.39-1.26,1.35,1.35,0,0,0-1.1-.45,1.43,1.43, 0,0,0-1.25.56,2.46,2.46,0,0,0-.42,1.51Z"/>
        <path class="cls-3" d="M363.81,41.22a1.42,1.42,0,0,0,.16.61,1.48,1.48,0,0,0,.39.48,1.74,1.74,0,0,0,.57.31,1.91,1.91,0,0,0,.68.12,2,2,0,0,0, 1.08-.25,1.51,1.51,0,0,0,.54-.59l1.62.9a3.42,3.42,0,0,1-.38.59,2.62,2.62,0,0,1-.62.56,3.34,3.34,0,0,1-.93.42,4.41,4.41,0,0,1-1.28.17,4.17,   4.17,0,0,1-1.53-.27,3.33,3.33,0,0,1-1.19-.78,3.4,3.4,0,0,1-.78-1.25,4.55,4.55,0,0,1-.28-1.66v-.09a4.13,4.13,0,0,1,.29-1.56,3.48,3.48,0,0,1,    .81-1.2,3.72,3.72,0,0,1,1.19-.78,3.91,3.91,0,0,1,1.46-.27,3.79,3.79,0,0,1,1.65.33,3.57,3.57,0,0,1,1.14.86,3.27,3.27,0,0,1,.66,1.14,3.76,    3.76,0,0,1,.21,1.21v1Zm1.78-2.83a1.82,1.82,0,0,0-1.17.36,1.76,1.76,0,0,0-.58.85h3.51a1.35,1.35,0,0,0-.56-.87A2,2,0,0,0,365.59,38.39Z"/>
        <path class="cls-3" d="M370.22,36.89h3.15V38h.26a1.89,1.89,0,0,1,.72-1,2.11,2.11,0,0,1,1.2-.33,2.38,2.38,0,0,1,1.79.69A3,3,0,0,1,378,   39.5v.33l-2,.18V39.8a1.49,1.49,0,0,0-.31-1,1.39,1.39,0,0,0-1.94.07,1.92,1.92,0,0,0-.35,1.25v2.4h1.7v1.8H370v-1.8h1.52V38.69h-1.34Z"/>
        </g>
    </g>
</svg>