<?xml version="1.0" encoding="UTF-8"?>
<!DOCTYPE svg PUBLIC "-//W3C//DTD SVG 1.1//EN"
          "http://www.w3.org/Graphics/SVG/1.1/DTD/svg11.dtd">
<svg xmlns="http://www.w3.org/2000/svg" viewBox="0 0 69.28 55.15">
    <defs>
        <style>.cls-2{fill:#e73e19;}.cls-3{fill:#fdf9e6;}</style>
    </defs>
    <g id="Layer_2" data-name="Layer 2">
        <g id="Layer_1-2" data-name="Layer 1">
            <path class="cls-2" d="M27,0H69.28a0,0,0,0,1,0,0V55.15a0,0,0,0,1,0,0H27a27,27,0,0,1-27-27V27A27,27,0,0,1,27,0Z"/>
            <path class="cls-3" d="M21.39,30c-2.08,2.19-.83,4.18-2.3,6.15-1.34,1.77-3.44,2.38-2.07,3.11,2.61,1.39,9.23.07,11.48-2.06a5,5,0,0,0,.13-7.11c-.1-.1-.2-.2-.31-.29A5.08,5.08,0,0,0,21.39,30Z"/>
            <path class="cls-3" d="M41.16,11.58a2,2,0,0,0-2.77.41l-12,15.56a6.08,6.08,0,0,1,4.46,3.18l10.82-16.4A2,2,0,0,0,41.16,11.58Z"/>
        </g>
    </g>
</svg>